<mxfile host="app.diagrams.net" modified="2024-02-21T02:47:56.382Z" agent="Mozilla/5.0 (Windows NT 10.0; Win64; x64) AppleWebKit/537.36 (KHTML, like Gecko) Chrome/121.0.0.0 Safari/537.36" version="23.1.5" etag="DfKTHGgSnbxgtDvJyYWL" type="github">
  <diagram name="第 1 页" id="DYMx1ccK6hqCPdblauvD">
    <mxGraphModel>
      <root>
        <mxCell id="0" />
        <mxCell id="1" parent="0" />
      </root>
    </mxGraphModel>
  </diagram>
</mxfile>
